<svg xmlns="http://www.w3.org/2000/svg" width="116" height="37" fill="none"><path fill="url(#a)" d="M18.52.5c-1.403 0-2.77.16-4.08.465A18.023 18.023 0 0 0 .986 14.42 18.021 18.021 0 0 0 .52 18.5c0 9.941 8.06 18 18 18 1.404 0 2.77-.16 4.081-.465a18.025 18.025 0 0 0 13.455-13.453c.305-1.31.465-2.678.465-4.082 0-9.941-8.06-18-18-18Zm0 29.272c-1.328 0-2.603-.23-3.786-.651a11.304 11.304 0 0 1-6.833-6.834 11.246 11.246 0 0 1-.652-3.787c0-6.226 5.046-11.272 11.271-11.272 1.33 0 2.604.23 3.787.652a11.304 11.304 0 0 1 6.834 6.833c.422 1.183.652 2.458.652 3.787 0 6.226-5.047 11.272-11.273 11.272Z"/><path fill="#FEFCFE" d="M18.52 11.235a7.265 7.265 0 1 0 .001 14.53 7.265 7.265 0 0 0 0-14.53Zm0 11.658a4.393 4.393 0 1 1 0-8.786 4.393 4.393 0 0 1 0 8.786Z"/><path fill="url(#b)" d="M22.307 7.88a11.242 11.242 0 0 0-3.787-.652C12.295 7.228 7.25 12.274 7.25 18.5c0 1.329.23 2.604.652 3.787a11.136 11.136 0 0 1-3.945-2.552 11.112 11.112 0 0 1-2.97-5.316A18.023 18.023 0 0 1 14.44.965c1.948.46 3.796 1.45 5.315 2.97a11.134 11.134 0 0 1 2.552 3.945Z"/><path fill="url(#c)" d="M36.056 22.582A18.025 18.025 0 0 1 22.6 36.035a11.113 11.113 0 0 1-5.315-2.97 11.138 11.138 0 0 1-2.552-3.944c1.183.422 2.458.651 3.786.651 6.226 0 11.273-5.046 11.273-11.272 0-1.329-.23-2.604-.652-3.787a11.138 11.138 0 0 1 3.944 2.552 11.117 11.117 0 0 1 2.97 5.317Z"/><path fill="url(#d)" d="M9.617 31.171a3.767 3.767 0 1 0 0-7.534 3.767 3.767 0 0 0 0 7.534Z"/><path fill="url(#e)" d="M27.457 13.33a3.767 3.767 0 1 0 0-7.533 3.767 3.767 0 0 0 0 7.534Z"/><path fill="#D4D4D8" d="M115.281 15.109v1.988h-6.272V15.11h6.272Zm-4.723-2.614h2.571v10.242c0 .345.052.61.156.795.109.18.251.303.426.37.175.066.369.099.582.099.161 0 .308-.012.441-.036.137-.023.241-.045.312-.064l.434 2.01a5.76 5.76 0 0 1-.59.156c-.251.057-.559.09-.923.1-.644.019-1.224-.078-1.74-.291a2.708 2.708 0 0 1-1.229-1.009c-.298-.454-.445-1.023-.44-1.704V12.495ZM104.618 26.018v-10.91h2.571v10.91h-2.571Zm1.293-12.458c-.407 0-.758-.135-1.051-.405a1.303 1.303 0 0 1-.44-.987c0-.388.146-.717.44-.987a1.485 1.485 0 0 1 1.051-.412c.412 0 .762.137 1.051.412.294.27.441.6.441.987 0 .384-.147.713-.441.988-.289.27-.639.404-1.051.404ZM92.134 26.018V11.472h2.571v5.44h.107c.133-.264.32-.546.561-.845.242-.303.568-.56.98-.774.412-.217.938-.326 1.577-.326.843 0 1.603.215 2.28.646.682.426 1.221 1.058 1.619 1.896.402.834.604 1.856.604 3.068 0 1.198-.197 2.216-.59 3.054-.393.838-.928 1.478-1.605 1.918-.677.44-1.444.66-2.301.66-.625 0-1.144-.104-1.555-.312a3.165 3.165 0 0 1-.995-.753 4.876 4.876 0 0 1-.575-.845h-.15v1.719h-2.528Zm2.522-5.455c0 .706.1 1.324.298 1.854.204.53.495.944.874 1.243.383.293.847.44 1.392.44.568 0 1.044-.151 1.427-.454.384-.308.672-.727.867-1.258.199-.535.298-1.143.298-1.825 0-.677-.097-1.278-.291-1.804-.194-.525-.483-.937-.867-1.236-.383-.298-.861-.447-1.434-.447-.55 0-1.016.144-1.4.433-.383.289-.674.694-.873 1.215-.194.52-.291 1.134-.291 1.84ZM84.091 26.018v-10.91h2.493v1.819h.114c.199-.63.54-1.115 1.022-1.456a2.815 2.815 0 0 1 1.67-.519c.141 0 .3.008.475.022.18.01.33.026.448.05v2.365a2.701 2.701 0 0 0-.519-.1 4.777 4.777 0 0 0-.674-.05 2.6 2.6 0 0 0-1.265.306c-.369.199-.66.476-.873.83-.213.356-.32.765-.32 1.23v6.413h-2.57ZM76.682 26.23c-1.066 0-1.989-.234-2.77-.702a4.775 4.775 0 0 1-1.818-1.968c-.427-.842-.64-1.827-.64-2.954 0-1.127.213-2.114.64-2.962a4.765 4.765 0 0 1 1.818-1.974c.781-.469 1.704-.703 2.77-.703 1.065 0 1.988.234 2.77.703a4.718 4.718 0 0 1 1.81 1.974c.431.848.647 1.835.647 2.962 0 1.127-.216 2.112-.646 2.954a4.727 4.727 0 0 1-1.812 1.968c-.78.468-1.704.703-2.77.703Zm.014-2.059c.578 0 1.06-.159 1.449-.476.388-.322.677-.753.866-1.292.194-.54.291-1.141.291-1.804 0-.668-.097-1.272-.29-1.811-.19-.545-.479-.978-.867-1.3-.389-.322-.871-.483-1.45-.483-.591 0-1.083.161-1.476.483-.389.322-.68.755-.874 1.3a5.444 5.444 0 0 0-.284 1.81c0 .664.095 1.265.284 1.805.194.54.485.97.874 1.292.393.317.885.476 1.477.476ZM67.706 26.174c-.43 0-.8-.151-1.108-.454a1.472 1.472 0 0 1-.454-1.108c-.005-.427.146-.791.454-1.094a1.523 1.523 0 0 1 1.108-.455c.417 0 .779.152 1.087.455a1.494 1.494 0 0 1 .248 1.882 1.633 1.633 0 0 1-.568.568 1.478 1.478 0 0 1-.767.206ZM56.506 19.626v6.392h-2.571v-10.91h2.457v1.854h.128c.251-.61.651-1.096 1.2-1.456.554-.36 1.239-.54 2.053-.54.753 0 1.408.162 1.967.484.564.322 1 .788 1.307 1.399.313.61.466 1.352.462 2.223v6.946h-2.571v-6.549c0-.729-.19-1.3-.569-1.711-.374-.412-.892-.618-1.555-.618-.45 0-.85.1-1.2.298a2.069 2.069 0 0 0-.817.845c-.194.37-.291.817-.291 1.343ZM48.72 26.018v-10.91h2.571v10.91H48.72Zm1.293-12.458a1.5 1.5 0 0 1-1.051-.405 1.305 1.305 0 0 1-.44-.987c0-.388.146-.717.44-.987a1.485 1.485 0 0 1 1.05-.412c.413 0 .763.137 1.052.412.293.27.44.6.44.987 0 .384-.147.713-.44.988-.29.27-.64.404-1.051.404Z"/><defs><linearGradient id="a" x1="31.076" x2="6.356" y1="6.636" y2="29.995" gradientUnits="userSpaceOnUse"><stop stop-color="#F38856"/><stop offset=".23" stop-color="#F0625C"/><stop offset="1" stop-color="#5C3DAB"/></linearGradient><linearGradient id="b" x1="17.381" x2="3.32" y1="3.552" y2="17.537" gradientUnits="userSpaceOnUse"><stop stop-color="#F67986"/><stop offset="1" stop-color="#8951BA"/></linearGradient><linearGradient id="c" x1="33.463" x2="19.402" y1="19.72" y2="33.706" gradientUnits="userSpaceOnUse"><stop stop-color="#F67986"/><stop offset="1" stop-color="#8951BA"/></linearGradient><linearGradient id="d" x1="12.367" x2="6.866" y1="24.831" y2="29.978" gradientUnits="userSpaceOnUse"><stop stop-color="#A267B9"/><stop offset="1" stop-color="#704BB4"/></linearGradient><linearGradient id="e" x1="29.747" x2="25.992" y1="7.42" y2="10.935" gradientUnits="userSpaceOnUse"><stop stop-color="#F7A8A5"/><stop offset=".97" stop-color="#D074C4"/><stop offset="1" stop-color="#CF76A9"/></linearGradient></defs></svg>