<svg xmlns="http://www.w3.org/2000/svg" width="320" height="321" fill="none"><path fill="#27272A" d="M172.048 194.276a142.636 142.636 0 0 1-.464-15.008c0-.416-.608-.528-.656 0a66.09 66.09 0 0 0 .16 15.088.483.483 0 0 0 .96-.08Zm-7.248-1.872a.368.368 0 0 0 .672 0c-.224-5.04-.432-10.096-.656-15.152a.318.318 0 0 0-.546-.226.32.32 0 0 0-.094.226 85.71 85.71 0 0 0 .128 11.456 14.97 14.97 0 0 0 .496 3.696Zm41.936.64a21.248 21.248 0 0 1-.816 7.328c0 .368 1.072 2.4 1.744-3.44a19.018 19.018 0 0 0-2.352-11.376c-.208-.384-.752 0-.576.336a19.978 19.978 0 0 1 2 7.152ZM187.344 77.38a5.2 5.2 0 0 0 1.152 3.312c.96.864 2.448-2.496 6.912-3.024v-4.32a11.84 11.84 0 0 0-8.064 4.032Zm42.064 115.568c0-3.296-.288-6.576-.352-9.872 0-.448-.688-.352-.688.096 0 3.408 0 6.848.144 10.272.064 2.256.944 1.424.896-.496ZM198.4 73.268l.096 4.32c5.52.192 7.12 4.352 7.712 3.056.256-.592 1.296-3.552.736-4.064a12.943 12.943 0 0 0-8.544-3.312ZM83.568 47.3c-.832.448 0 2.416.656 1.984.656-.432.256-2.512-.656-1.984Zm-1.056-4.816c-1.12.112-1.152 1.264 0 1.408a5.584 5.584 0 0 1 2.368.736c.432.288.896-.288.64-.688a3.343 3.343 0 0 0-3.008-1.456Zm-2.864 5.632a22.393 22.393 0 0 1 1.008 3.456c.272 1.376.256 1.744.192 1.824-.258.008-.515.04-.768.096-.464.16-.464.752.256 1.088a1.088 1.088 0 0 0 1.216-.16c.832-.8.48-3.056-1.024-6.704a.483.483 0 1 0-.88.4Z"/><path fill="#27272A" d="M311.552 240.852h-22.704c2.096-11.2-10.352-19.088-18.096-14.96a16.253 16.253 0 0 0-17.184-12.944 18.384 18.384 0 0 0-9.12-13.216c-.752-8.96-.416-18.08-.4-26.928 1.36.096 4.624.4 4.096-.896-1.6-3.968-4.336-10.592-6.4-14.4.832 0 1.776 0 1.776-.848.256-15.36.752-47.584.752-47.584.256-19.072.896-40.992-12.496-56.688-.416-.496-.992-.672-1.36-.16a60.978 60.978 0 0 0-10.464 25.92c-.544-9.12-1.264-19.424-2.672-29.616-2.4-17.296-8.192-28.912-17.6-35.808-.896-.656-2.208-1.712-2.8-1.296-14.688 10.4-19.008 28.544-20.032 41.936a192.575 192.575 0 0 0-.336 17.2c-1.968-7.344-8.72-21.68-11.2-18.224-11.552 16.544-10.576 37.92-9.6 56.784 1.6 35.936 2.08 45.2 2.288 47.616 0 .784 0 1.312 2.208 1.072-4.656 12.336-5.616 14.4-5.2 14.752.416.352 2.064.24 2.864.192-.112 5.392 1.168 31.6.992 32.992a17.646 17.646 0 0 0-2.768 4.704 19.315 19.315 0 0 0-12.48 10.576 12.247 12.247 0 0 0-6.224 1.024c-1.92-21.296-5.856-53.488-10.672-74.928 8.24 1.072 12.176-2.624 14.08-5.824 4.8-8.368 1.6-22.272-4.352-29.968A78.811 78.811 0 0 0 114.832 83.7c.976-1.856-1.6-10.288-8.144-13.76-2.8-1.488-6.528-1.6-8.24-3.2-3.664-3.584-1.2-13.12-8.832-15.616a72.107 72.107 0 0 0-2.448-11.648c9.6-4.128 9.104-15.296 3.44-18.464-5.28-2.944-8.192 1.232-11.664 2.4-4.8 1.6-8.88-1.856-15.184-1.856-11.888 0-14.704 11.968-15.328 12.56-.624.592-.864 3.968-6.16 6.048-5.632 2.192-12.8 2.32-15.856 8.944-2.592 5.792 2.384 12.864-1.04 18.224-2 3.2-9.184 3.392-14.4 11.76-5.584 8.912-3.712 21.008 3.984 26.032-6.624 14.88-6.32 30.704.784 41.36 6.496 9.712 17.088 13.36 28.592 13.056-.576 27.104-.336 54.128-1.776 81.408-5.2 0-10.416.112-15.52.208a.544.544 0 1 0 0 1.088c4.56.096 9.952.192 15.424.192-.88 15.888-2.064 32-3.52 47.792-.144 1.6 3.6 1.504 5.184 1.6a28.036 28.036 0 0 0-.496 6.752c-1.216 1.072-2.992 8.4-2.896 9.76 0 .288.128.464.32.496 1.76.288 28.352 1.6 29.584.144a.384.384 0 0 0 0-.368c-1.776-4.8-8-8.848-13.088-10.16l1.376-6.128c1.056 0 3.2.16 3.504-.4a597.528 597.528 0 0 0 19.344-49.472h23.264a613.085 613.085 0 0 1 11.728 43.12c1.36 5.856.416 5.536 4.192 5.712a26.76 26.76 0 0 0 .816 6.768 28.435 28.435 0 0 0-2.192 9.088.352.352 0 0 0 0 .352c1.008 1.28 29.728 2.352 31.696 1.184 1.6-1.024-7.168-9.52-14.944-11.088a39.19 39.19 0 0 0-.144-6.128c1.36 0 4.496.368 4.496-.976 0-15.104-.512-31.28-1.6-48H311.6a.811.811 0 0 0 .57-.256.815.815 0 0 0-.618-1.376Zm-216.72-28.544c3.984 10.96 6.112 17.776 9.712 28.688H82.256c3.888-11.504 9.264-28.8 12.8-43.344 1.2-4.8 3.616-2.768 2.736 1.136-1.024 4.816-3.008 13.408-2.96 13.52Zm40.368 85.44c-2.736 1.248-9.6 1.168-12.272.4-.176-2.288-.64-4.576-.672-6.864l12.576.144c.112 2.112.24 4.208.368 6.32ZM45.6 159.524c13.44-.672 29.424-6.816 42.8-16.464.288-.208.544-.256.624-.528.08-.272 0-.496-.48-1.184a54.699 54.699 0 0 1 11.76-3.952c1.6-.288 6.288-1.184 7.136-3.728l3.488-.096c3.36 6.96 8.704 11.792 14.688 13.296l3.2 19.024c-26.432 9.104-50.56 11.04-83.12 6.608.112-4.304.128-8.672-.048-12.976H45.6Zm41.936-97.52c-2.24 5.808-6.912 6.048-6.16 7.424v.496c.304 2.544.896 7.776-3.2 11.472-6.912-2.752-11.2-5.92-14.4-10.528.672-1.168 0-6.272 0-6.32-.992-5.216-5.536-6.272-4.512-10.992.144-.688.352-1.088.624-1.216.896-.4 3.2 2.688 3.68-.896.752-5.12 2.192-9.072 7.264-10.512 4.704-1.328 9.248.944 15.328-1.152 1.376 5.696 3.744 16 1.376 22.224Zm-9.12 20.8c2.768-.688 5.136-7.488 4.56-11.296a70.93 70.93 0 0 1 12.704 3.008c15.04 5.36 28.096 16.816 36.912 32.368-6.016-5.76-13.888-9.008-21.008-8.56a70.83 70.83 0 0 0-7.792-10.464.452.452 0 0 0-.344-.153.461.461 0 0 0-.344.153.479.479 0 0 0 0 .688 98.439 98.439 0 0 1 7.056 9.984 17.603 17.603 0 0 0-6.032 2.08c-.302.03-.602.083-.896.16-.878.199-1.772.322-2.672.368-3.744 0-3.888-1.6-5.232-1.424-2.672.272-1.888 5.552 4.256 6.672-1.104 3.088-1.6 9.888.464 12.8-2.464 0-4.048-.512-4.144 2a9.615 9.615 0 0 0 0 1.36 6.29 6.29 0 0 0-5.408-.672c-1.68.64-4.88 3.984-6.496 5.376 0-.672 0-1.696-.592-1.76-10.16-.848-25.6-1.088-34.848-.832a108.356 108.356 0 0 1 .256-19.6.514.514 0 1 0-1.008-.208c-.512 2.88-1.504 14.624-.464 19.856l-13.104.864a.483.483 0 0 0-.408.634.48.48 0 0 0 .168.23.401.401 0 0 0 .336.096 358.225 358.225 0 0 1 48.496.32 28.193 28.193 0 0 0 4.688 15.184c-21.344 15.376-56.464 25.424-70.8 3.632C6.4 130.1 11.52 102.9 30.656 86.292A65.6 65.6 0 0 1 62.8 71.348c2.896 5.52 13.52 11.936 15.6 11.424l.016.032Zm23.712 19.392c-.815.861-1.5 1.837-2.032 2.896-2.992-.448-4.688-2.016-4.976-3.312-.224-.896.304-1.264 1.408-.512a9.936 9.936 0 0 0 5.6.928Zm7.776 8.816a.558.558 0 0 0-.041.682c.07.102.171.179.288.218a.565.565 0 0 0 .361-.004c1.296-.512 1.904-.4 2-.16.096.24-.416 1.424-1.456 1.936-.672.336-1.968.64-2.96-1.168-.816-1.472.576-3.088 0-3.424-.576-.336-2.208 2.144-.816 4.32a1.788 1.788 0 0 1-2 .08c-.704-.544-1.184-2.064-.368-4.8.304-1.056-1.488-1.328-1.712 3.2-.096.624-.784 4.464-.992 5.76-.208 1.296-.496 1.392-.528 1.408-.032.016-.176 0-.304-.176-1.136-1.28-2.496-7.792-.32-12.8a9.332 9.332 0 0 1 8.4-5.856 6.643 6.643 0 0 1 6.4 8.816 3.71 3.71 0 0 1-2.256 2.352 2.299 2.299 0 0 0-1.751-1.128 2.3 2.3 0 0 0-1.945.744Zm-11.776 13.552a2.574 2.574 0 0 0-1.072-1.328l.192-2.592h7.584c0 .864.24 3.408.24 3.408a50.26 50.26 0 0 0-6.944.512Zm4.96-5.36a40.14 40.14 0 0 0 .912-5.312 3.198 3.198 0 0 0 4.16.48l.256.176a25.346 25.346 0 0 0-.256 9.504h-1.6a16.34 16.34 0 0 0-.496-4.496c-.464-.416-2.272-.352-2.976-.352Zm-12.32 3.872a6.275 6.275 0 0 1 6.048 1.744c.288.48.24.64.224.688-.016.048-.96.176-1.6.144a4.796 4.796 0 0 0-2.784.384 6.623 6.623 0 0 0-2.416 4.256c-.24 4.08 11.552 3.568 15.584 3.44-2.976 3.04-11.84 2.352-17.84 6.544a30.625 30.625 0 0 1-3.92-11.776c1.056-.48 5.008-4.688 6.704-5.424Zm50.032 15.216c-3.456 10.096-14.288 7.504-14.736 7.392-7.552-1.904-11.92-8.944-13.568-12.208 1.792-.416 1.28-2.176 1.104-3.872l13.952-.32c1.12 2.128 3.776 1.424 3.648-.704a1.984 1.984 0 0 0-3.808-.848c-2-.176-11.84.096-13.904.32-.24-4.288 0-3.984-3.952-3.968a37.28 37.28 0 0 1 0-9.056 3.634 3.634 0 0 0 4.064-2.288c2.656-.336 5.328-4.944 2.976-9.872a6.783 6.783 0 0 0-4.272-3.376c12.208-.32 23.264 9.52 27.68 21.232.224 0 .368-.16 0 0a26.386 26.386 0 0 1 .816 17.568Zm-83.2 154a46.906 46.906 0 0 0-1.12 6.128 63.556 63.556 0 0 1-11.712.128c.256-2.224.496-4.432.736-6.656l12.096.4Zm213.28-65.456c3.488-2.864 18.912.784 16.608 14.064H138.992l-1.392-17.728c8.112-2.816 14.064 1.472 16.16 6.688.368.976 2.432.144-.784-3.872a13.498 13.498 0 0 0-8.128-4.8c7.744-14.912 29.664-12.528 33.92 3.504.224.848 1.488.432 1.264-.416a19.472 19.472 0 0 0-22.4-14.032 18.541 18.541 0 0 1 23.166-9.085 18.54 18.54 0 0 1 7.394 5.133c1.472 1.6 6.4 10.976 8 12.08a18.517 18.517 0 0 0-2.416 7.36 14.668 14.668 0 0 0-8.672 8.592.498.498 0 1 0 .912.4 14.047 14.047 0 0 1 24-3.04.687.687 0 0 0 1.239-.287.689.689 0 0 0-.119-.513 15.286 15.286 0 0 0-7.271-5.259 15.29 15.29 0 0 0-8.969-.277 19.2 19.2 0 0 1 8.336-12.56 18.35 18.35 0 0 1 28.128 13.28.67.67 0 0 0 .713.527.671.671 0 0 0 .615-.639 19.792 19.792 0 0 0-12.272-16A17.592 17.592 0 0 1 233.6 198.9c9.344-1.44 17.36 5.744 18.544 14.208a16.41 16.41 0 0 0-11.696 8.272c-.288.544.592 1.024.896.496a15.662 15.662 0 0 1 17.6-7.136 15.49 15.49 0 0 1 10.784 15.088c0 .432.576.976 1.008.672.176-.112.688-.48.16-3.664h-.016ZM178.32 54.228c10.976-1.92 22.4-2.256 38.16-1.088 2.528 21.744 2.896 42.224 3.296 64.096-3.072-6.784-6.192-16.688-6.144-23.52A49.41 49.41 0 0 0 208 70.9c-4.384-8.368-10.32-14.288-16.784-7.344-8.96 9.6-8.32 21.184-8.144 34.032a77.187 77.187 0 0 1-3.664 16.784c-.56-26.672-2.112-46.32-1.088-60.144Zm64.128 101.984a11.497 11.497 0 0 0-3.552 0l.16-12.608a1.902 1.902 0 0 0-.48-1.6c-3.664-3.072-13.92-12.96-17.312-21.776 0-9.28-.144-18.688-.512-27.968 8.112-.24 15.696-.144 22.08 0 .64 15.6-.56 42.864-.384 63.952Zm-63.904 42.8a19.705 19.705 0 0 0-18.224 5.312c-.112-3.44-.816-24.816-1.056-31.536l18.176-.352c-.048 3.248.8 23.44 1.104 26.576Zm35.424-94.256c2.928 12.112 8.176 25.056 23.696 38.224 0 4.32-.496 15.248-.208 19.408-.32 0-23.872.16-25.6.304a515.643 515.643 0 0 0 2.112-57.936Zm-30.544.24c1.072 19.6 3.04 39.104 5.872 58.048-3.92-.096-22.304-.656-24.976-.528 0-2.624-.656-17.728-.72-19.2a75.576 75.576 0 0 0 19.824-38.32Zm-4.8 67.408c1.152 0 3.696.272 3.552-.864a36.917 36.917 0 0 0-2.928-7.216l10.208.144c.24 1.472.464 2.944.688 4.416-1.504 1.6-4.544 10.88-4.96 12.56a.737.737 0 0 0 .128.656c.384.48 1.392.544 2.464.544-4.656 7.376-2.128 16.496-.352 20.992a21.274 21.274 0 0 0-7.616-4.288c.368-2.928-.976-24.256-1.168-26.944h-.016Zm8.192 17.344a19.742 19.742 0 0 1 2.368-7.024c7.381.296 14.772.216 22.144-.24.88 3.472 8.896 12.576-1.056 26.256a19.44 19.44 0 0 0-13.456 8.32c-5.664-8.56-11.44-17.008-9.984-27.312h-.016Zm25.744-67.552c-.24 16.128-1.232 30.256-2.416 45.712l-18.832.496c-3.552-24.592-5.072-42.192-6.4-62.4-.368-5.728-.736-11.664-.608-17.472.208-9.968 2.24-17.072 6.4-22.4 5.888-7.504 10.656-4.16 15.328 4.144a48.277 48.277 0 0 1 5.456 15.424c1.44 8.16 1.152 31.84 1.088 36.496h-.016Zm6.72 87.344a20.148 20.148 0 0 0-7.136-.96 23.488 23.488 0 0 0 .656-26.16c1.04 0 3.808 0 3.488-.976-.544-1.824-2.08-5.616-3.312-8.672-.8-2.016-1.6-3.76-1.6-4.224.096-.848.48-4.624.48-4.624 1.488.24 8.608 0 11.024 0-2.032 6.4-1.76 5.6-2.192 6.704-.32.848-.48 1.264-.272 1.6.208.336 1.056.32 3.2.368 0 9.232.784 19.904 1.184 29.104a16.003 16.003 0 0 0-5.504 7.84h-.016Zm5.36-36.96 18.224.176a186.6 186.6 0 0 0 .096 26.16 17.361 17.361 0 0 0-17.024 1.744c-.336-9.36-.592-18.976-1.28-28.08h-.016ZM178.4 53.028c1.104-12.944 5.36-30.272 19.2-40.224 13.312 9.136 16.944 24.736 18.704 38.864-11.344-.832-27.312-.72-37.888 1.36h-.016Zm-21.6 41.328c3.728 0 17.6-.192 20.8-.208.288 7.68.582 15.371.88 23.072-2.96 7.68-9.6 19.488-15.824 25.28-.32 1.6.096 11.904.176 13.76-1.168.112-2.336.224-3.424.384-.64-21.536-2.608-49.36-2.608-62.288Z"/><path fill="#27272A" d="M79.344 58.18c-4.336-.336-5.44-3.488-6.4-3.2-.256 0-.368.336-.432.512-1.36 2.96.368 6.64 3.392 6.64a5.168 5.168 0 0 0 4.24-3.2.576.576 0 0 0-.8-.752Zm-.768 1.104c-2.16 2.88-5.584 1.6-5.248-2.352a7.136 7.136 0 0 0 5.248 2.352ZM200 128.132a.719.719 0 0 0-1.424 0c0 2.416.8 32.224 1.248 35.456a.575.575 0 0 0 1.152 0c.72-10.176-.64-24.912-.976-35.456ZM73.6 50.644c.512 0 .672-.544.56-1.104-.224-1.12-1.12-1.184-1.344-.544-.224.64.096 1.648.784 1.648Zm-1.696-6.768a3.2 3.2 0 0 0-2.576 3.104c.128.832.816.832.928.224.336-1.712 1.056-1.6 1.952-2.144a.624.624 0 0 0-.304-1.184Zm163.424 150.4c0 .304.592.208.656-.096.256-1.088-.928-13.488-.736-16.848 0-.432-.64-.416-.672 0a88.09 88.09 0 0 0 .752 16.944Zm-36.8 13.008c.32.24.816-.144.608-.496-.608-1.072-1.472-1.904-2.384-3.552a20.179 20.179 0 0 1-.912-17.12c.176-.4-.464-.64-.656-.224a20.302 20.302 0 0 0 1.744 19.408c.428.74.968 1.409 1.6 1.984Z"/></svg>