<svg xmlns="http://www.w3.org/2000/svg" width="400" height="400" fill="none"><g clip-path="url(#a)"><path fill="#09090B" d="M400 0H0v400h400V0Z"/><path fill="url(#b)" d="M200 95.107c-8.179 0-16.14.936-23.778 2.71-38.837 8.999-69.406 39.568-78.404 78.401A105.022 105.022 0 0 0 95.107 200c0 57.931 46.962 104.893 104.893 104.893 8.179 0 16.14-.936 23.782-2.711 38.833-8.998 69.402-39.563 78.404-78.393A105.04 105.04 0 0 0 304.897 200c0-57.931-46.966-104.893-104.897-104.893Zm0 170.582a65.513 65.513 0 0 1-22.065-3.799c-18.528-6.608-33.213-21.293-39.821-39.821A65.536 65.536 0 0 1 134.315 200c0-36.279 29.406-65.689 65.685-65.689a65.513 65.513 0 0 1 22.065 3.799c18.528 6.608 33.217 21.293 39.825 39.821A65.536 65.536 0 0 1 265.689 200c0 36.279-29.41 65.689-65.689 65.689Z"/><path fill="#FEFCFE" d="M200 157.664c-23.38 0-42.336 18.956-42.336 42.336S176.62 242.336 200 242.336 242.336 223.38 242.336 200 223.384 157.664 200 157.664Zm0 67.935c-14.135 0-25.599-11.459-25.599-25.599 0-14.139 11.464-25.599 25.599-25.599 14.136 0 25.599 11.46 25.599 25.599 0 14.14-11.459 25.599-25.599 25.599Z"/><path fill="url(#c)" d="M222.065 138.11A65.513 65.513 0 0 0 200 134.311c-36.279 0-65.685 29.41-65.685 65.689a65.536 65.536 0 0 0 3.799 22.069c-8.382-3.167-16.242-8.125-22.99-14.872-8.854-8.855-14.623-19.624-17.306-30.979 8.998-38.833 39.567-69.402 78.404-78.4 11.351 2.683 22.12 8.452 30.975 17.306 6.744 6.744 11.701 14.604 14.868 22.986Z"/><path fill="url(#d)" d="M302.186 223.789c-9.002 38.83-39.571 69.395-78.404 78.393-11.351-2.683-22.12-8.452-30.975-17.306-6.747-6.748-11.705-14.608-14.872-22.986A65.513 65.513 0 0 0 200 265.689c36.279 0 65.689-29.41 65.689-65.689a65.536 65.536 0 0 0-3.799-22.069c8.378 3.167 16.238 8.125 22.986 14.873 8.854 8.854 14.627 19.631 17.31 30.985Z"/><path fill="url(#e)" d="M148.115 273.841c12.124 0 21.952-9.828 21.952-21.952 0-12.124-9.828-21.952-21.952-21.952-12.124 0-21.952 9.828-21.952 21.952 0 12.124 9.828 21.952 21.952 21.952Z"/><path fill="url(#f)" d="M252.08 169.876c12.124 0 21.952-9.828 21.952-21.952 0-12.124-9.828-21.952-21.952-21.952-12.124 0-21.952 9.828-21.952 21.952 0 12.124 9.828 21.952 21.952 21.952Z"/></g><defs><linearGradient id="b" x1="273.166" x2="129.112" y1="130.863" y2="266.988" gradientUnits="userSpaceOnUse"><stop stop-color="#F38856"/><stop offset=".23" stop-color="#F0625C"/><stop offset="1" stop-color="#5C3DAB"/></linearGradient><linearGradient id="c" x1="193.361" x2="111.423" y1="112.889" y2="194.387" gradientUnits="userSpaceOnUse"><stop stop-color="#F67986"/><stop offset="1" stop-color="#8951BA"/></linearGradient><linearGradient id="d" x1="287.076" x2="205.137" y1="207.107" y2="288.608" gradientUnits="userSpaceOnUse"><stop stop-color="#F67986"/><stop offset="1" stop-color="#8951BA"/></linearGradient><linearGradient id="e" x1="164.142" x2="132.084" y1="236.891" y2="266.886" gradientUnits="userSpaceOnUse"><stop stop-color="#A267B9"/><stop offset="1" stop-color="#704BB4"/></linearGradient><linearGradient id="f" x1="265.424" x2="243.538" y1="135.434" y2="155.916" gradientUnits="userSpaceOnUse"><stop stop-color="#F7A8A5"/><stop offset=".97" stop-color="#D074C4"/><stop offset="1" stop-color="#CF76A9"/></linearGradient><clipPath id="a"><rect width="400" height="400" fill="#fff" rx="64"/></clipPath></defs></svg>